<svg width="64" height="64" viewBox="0 0 64 64" fill="none" xmlns="http://www.w3.org/2000/svg">
<path d="M1.33334 44.7733H62.6667" stroke="#FF9245" stroke-width="4.08" stroke-miterlimit="10"/>
<path d="M6.45333 44.7733H57.5467V45.3333C57.5467 47.9148 56.5212 50.3905 54.6958 52.2158C52.8705 54.0412 50.3948 55.0666 47.8133 55.0666H16.1867C13.6052 55.0666 11.1295 54.0412 9.30416 52.2158C7.4788 50.3905 6.45333 47.9148 6.45333 45.3333V44.8533V44.7733Z" stroke="#FF9245" stroke-width="4.08" stroke-miterlimit="10"/>
<path d="M23.7636 12.3733C30.0662 10.6846 36.7814 11.5686 42.4321 14.831C48.0827 18.0935 52.206 23.467 53.8947 29.7695L6.36745 42.5044C4.6787 36.2019 5.56277 29.4867 8.82519 23.836C12.0876 18.1853 17.4611 14.0621 23.7636 12.3733Z" fill="#FF9245" stroke="#FF9245" stroke-width="4.08" stroke-miterlimit="10"/>
<path d="M23.7636 12.3733C26.394 11.6685 27.9549 8.96482 27.2501 6.33448C26.5453 3.70414 23.8417 2.14318 21.2113 2.84798C18.581 3.55278 17.02 6.25644 17.7248 8.88678C18.4296 11.5171 21.1333 13.0781 23.7636 12.3733Z" stroke="#FF9245" stroke-width="4.08" stroke-miterlimit="10"/>
</svg>
