<svg width="26" height="26" viewBox="0 0 26 26" fill="none" xmlns="http://www.w3.org/2000/svg">
<path d="M0.541626 18.1892H25.4583" stroke="#020202" stroke-width="2.32" stroke-miterlimit="10"/>
<path d="M2.6217 18.1892H23.3784V18.4167C23.3784 19.4654 22.9618 20.4711 22.2202 21.2127C21.4787 21.9542 20.4729 22.3708 19.4242 22.3708H6.57587C5.52716 22.3708 4.5214 21.9542 3.77985 21.2127C3.0383 20.4711 2.6217 19.4654 2.6217 18.4167V18.2217V18.1892Z" stroke="#020202" stroke-width="2.32" stroke-miterlimit="10"/>
<path d="M13 7.81084C15.7525 7.81084 18.3923 8.90426 20.3386 10.8506C22.2849 12.7969 23.3784 15.4367 23.3784 18.1892H2.6217C2.6217 15.4367 3.71513 12.7969 5.66145 10.8506C7.60776 8.90426 10.2475 7.81084 13 7.81084Z" fill="#FFA464" stroke="#020202" stroke-width="2.32" stroke-miterlimit="10"/>
<path d="M13 7.81083C14.1488 7.81083 15.08 6.87959 15.08 5.73083C15.08 4.58208 14.1488 3.65083 13 3.65083C11.8513 3.65083 10.92 4.58208 10.92 5.73083C10.92 6.87959 11.8513 7.81083 13 7.81083Z" stroke="#020202" stroke-width="2.32" stroke-miterlimit="10"/>
</svg>
