<svg width="26" height="26" viewBox="0 0 26 26" fill="none" xmlns="http://www.w3.org/2000/svg">
<path d="M10.2917 9.75H10.3025M15.7083 9.75H15.7192M19.5 4.33334C20.362 4.33334 21.1886 4.67575 21.7981 5.28524C22.4076 5.89473 22.75 6.72138 22.75 7.58334V16.25C22.75 17.112 22.4076 17.9386 21.7981 18.5481C21.1886 19.1576 20.362 19.5 19.5 19.5H14.0833L8.66667 22.75V19.5H6.5C5.63805 19.5 4.8114 19.1576 4.2019 18.5481C3.59241 17.9386 3.25 17.112 3.25 16.25V7.58334C3.25 6.72138 3.59241 5.89473 4.2019 5.28524C4.8114 4.67575 5.63805 4.33334 6.5 4.33334H19.5Z" stroke="black" stroke-width="2" stroke-linecap="round" stroke-linejoin="round"/>
<path d="M10.2917 14.0833C10.6447 14.4437 11.0661 14.7299 11.5312 14.9253C11.9962 15.1207 12.4956 15.2214 13 15.2214C13.5045 15.2214 14.0038 15.1207 14.4689 14.9253C14.9339 14.7299 15.3553 14.4437 15.7084 14.0833" stroke="black" stroke-width="2" stroke-linecap="round" stroke-linejoin="round"/>
</svg>
