<svg width="14" height="14" viewBox="0 0 14 14" fill="none" xmlns="http://www.w3.org/2000/svg">
<path d="M7 7.58333C7.9665 7.58333 8.75 6.79983 8.75 5.83333C8.75 4.86683 7.9665 4.08333 7 4.08333C6.0335 4.08333 5.25 4.86683 5.25 5.83333C5.25 6.79983 6.0335 7.58333 7 7.58333Z" stroke="black" stroke-width="0.916667" stroke-linecap="round" stroke-linejoin="round"/>
<path d="M7.00004 1.16667C5.76236 1.16667 4.57538 1.65834 3.70021 2.53351C2.82504 3.40868 2.33337 4.59566 2.33337 5.83334C2.33337 6.93701 2.56787 7.65917 3.20837 8.45834L7.00004 12.8333L10.7917 8.45834C11.4322 7.65917 11.6667 6.93701 11.6667 5.83334C11.6667 4.59566 11.175 3.40868 10.2999 2.53351C9.4247 1.65834 8.23772 1.16667 7.00004 1.16667Z" stroke="black" stroke-width="0.916667" stroke-linecap="round" stroke-linejoin="round"/>
</svg>
