<svg width="129" height="128" viewBox="0 0 129 128" fill="none" xmlns="http://www.w3.org/2000/svg">
<g clip-path="url(#clip0_445_1887)">
<path d="M3.16663 89.5469H125.833" stroke="#FF9245" stroke-width="4.08" stroke-miterlimit="10"/>
<path d="M13.4066 89.5469H115.593V90.6669C115.593 95.8298 113.542 100.781 109.892 104.432C106.241 108.083 101.289 110.134 96.1266 110.134H32.8733C27.7104 110.134 22.759 108.083 19.1083 104.432C15.4576 100.781 13.4066 95.8298 13.4066 90.6669V89.7069V89.5469Z" stroke="#FF9245" stroke-width="4.08" stroke-miterlimit="10"/>
<path d="M65.0126 39.0625C78.5634 39.0625 91.5592 44.4455 101.141 54.0274C110.723 63.6092 116.106 76.605 116.106 90.1558H13.9193C13.9193 76.605 19.3023 63.6092 28.8842 54.0274C38.4661 44.4455 51.4618 39.0625 65.0126 39.0625Z" fill="#FF9245" stroke="#FF9245" stroke-width="4.08" stroke-miterlimit="10"/>
<path d="M65.0127 39.062C70.6681 39.062 75.2527 34.4774 75.2527 28.822C75.2527 23.1666 70.6681 18.582 65.0127 18.582C59.3573 18.582 54.7727 23.1666 54.7727 28.822C54.7727 34.4774 59.3573 39.062 65.0127 39.062Z" stroke="#FF9245" stroke-width="4.08" stroke-miterlimit="10"/>
<g clip-path="url(#clip1_445_1887)">
<rect x="88.2419" y="3" width="40.2581" height="40.2581" rx="20.129" fill="#FEDC00"/>
<path d="M108.371 3C119.488 3 128.5 12.0118 128.5 23.129C128.5 34.2463 119.488 43.2581 108.371 43.2581C97.2537 43.2581 88.2419 34.2463 88.2419 23.129C88.2419 12.0118 97.2537 3 108.371 3ZM108.371 7.02581C104.1 7.02581 100.004 8.72239 96.9843 11.7423C93.9643 14.7623 92.2677 18.8582 92.2677 23.129C92.2677 27.3999 93.9643 31.4958 96.9843 34.5157C100.004 37.5357 104.1 39.2323 108.371 39.2323C112.642 39.2323 116.738 37.5357 119.758 34.5157C122.778 31.4958 124.474 27.3999 124.474 23.129C124.474 18.8582 122.778 14.7623 119.758 11.7423C116.738 8.72239 112.642 7.02581 108.371 7.02581ZM108.371 11.0516C108.864 11.0517 109.34 11.2327 109.708 11.5603C110.077 11.8879 110.312 12.3394 110.37 12.829L110.384 13.0645V22.2957L115.833 27.7446C116.194 28.1069 116.403 28.5929 116.419 29.1041C116.435 29.6153 116.255 30.1132 115.917 30.4968C115.579 30.8804 115.107 31.1209 114.598 31.1694C114.089 31.2179 113.58 31.0708 113.176 30.7579L112.987 30.5909L106.948 24.5522C106.635 24.239 106.434 23.8315 106.376 23.3927L106.358 23.129V13.0645C106.358 12.5307 106.57 12.0187 106.948 11.6412C107.325 11.2637 107.837 11.0516 108.371 11.0516Z" fill="#FF9245"/>
</g>
</g>
<defs>
<clipPath id="clip0_445_1887">
<rect width="128" height="128" fill="white" transform="translate(0.5)"/>
</clipPath>
<clipPath id="clip1_445_1887">
<rect x="88.2419" y="3" width="40.2581" height="40.2581" rx="20.129" fill="white"/>
</clipPath>
</defs>
</svg>
