<svg width="77" height="76" viewBox="0 0 77 76" fill="none" xmlns="http://www.w3.org/2000/svg">
<g clip-path="url(#clip0_161_2152)">
<path d="M2.08334 53.1683H74.9167" stroke="#FF9245" stroke-width="4.08" stroke-miterlimit="10"/>
<path d="M8.16333 53.1683H68.8367V53.8333C68.8367 56.8988 67.6189 59.8387 65.4513 62.0063C63.2837 64.1739 60.3438 65.3917 57.2783 65.3917H19.7217C16.6562 65.3917 13.7163 64.1739 11.5487 62.0063C9.38108 59.8387 8.16333 56.8988 8.16333 53.8333V53.2633V53.1683Z" stroke="#FF9245" stroke-width="4.08" stroke-miterlimit="10"/>
<path d="M38.8367 14.16C46.8825 14.16 54.5987 17.3562 60.2879 23.0454C65.9771 28.7347 69.1733 36.4509 69.1733 44.4967H8.5C8.5 36.4509 11.6962 28.7347 17.3854 23.0454C23.0746 17.3562 30.7909 14.16 38.8367 14.16Z" fill="#FF9245" stroke="#FF9245" stroke-width="4.08" stroke-miterlimit="10"/>
<path d="M38.8367 14.16C42.1945 14.16 44.9167 11.4379 44.9167 8.08C44.9167 4.72211 42.1945 2 38.8367 2C35.4788 2 32.7567 4.72211 32.7567 8.08C32.7567 11.4379 35.4788 14.16 38.8367 14.16Z" stroke="#FF9245" stroke-width="4.08" stroke-miterlimit="10"/>
</g>
<defs>
<clipPath id="clip0_161_2152">
<rect width="76" height="76" fill="white" transform="translate(0.5)"/>
</clipPath>
</defs>
</svg>
